<svg id="svg" xmlns="http://www.w3.org/2000/svg" xmlns:xlink="http://www.w3.org/1999/xlink" width="400" height="400" viewBox="0, 0, 400,400"><g id="svgg"><path id="path0" d="M170.000 5.261 C 68.362 24.458,4.746 100.373,5.134 202.000 C 5.570 316.367,87.246 397.224,202.000 396.893 C 316.273 396.564,396.564 316.273,396.893 202.000 C 397.162 108.757,340.531 33.103,253.000 9.769 C 237.369 5.603,183.642 2.685,170.000 5.261 M228.904 37.039 C 362.671 60.366,413.945 222.055,318.000 318.000 C 222.055 413.945,60.366 362.671,37.039 228.904 C 17.509 116.908,116.908 17.509,228.904 37.039 M170.337 67.067 C 85.666 85.445,39.156 182.990,77.868 261.000 C 134.621 375.366,302.499 358.168,334.063 234.754 C 359.258 136.242,270.491 45.327,170.337 67.067 M215.160 95.771 C 232.405 106.288,230.611 131.376,211.923 141.040 C 189.137 152.823,165.135 124.442,179.432 102.621 C 186.342 92.075,203.655 88.756,215.160 95.771 M200.000 155.000 C 218.150 155.000,245.362 154.217,260.471 153.260 C 285.431 151.680,288.061 151.831,289.244 154.915 C 292.105 162.370,285.576 164.606,254.380 166.854 C 234.884 168.260,223.471 169.947,221.306 171.745 C 213.689 178.069,219.997 233.879,233.294 277.802 C 240.481 301.543,240.651 306.000,234.373 306.000 C 226.914 306.000,215.353 277.568,208.965 243.516 C 205.644 225.813,197.557 228.769,193.015 249.347 C 184.585 287.542,176.725 306.000,168.888 306.000 C 161.564 306.000,161.563 303.839,168.869 278.457 C 182.532 230.986,189.501 181.097,183.560 173.281 C 181.201 170.177,176.461 169.277,154.867 167.835 C 116.167 165.250,109.574 163.207,112.799 154.804 C 113.909 151.911,116.936 151.744,140.522 153.278 C 155.085 154.225,181.850 155.000,200.000 155.000 " stroke="none" fill="#000000" fill-rule="evenodd"></path></g></svg>